<svg width="31" height="30" viewBox="0 0 31 30" fill="none" xmlns="http://www.w3.org/2000/svg">
    <path d="M29.5 18.5C29.5 6.50011 29.9999 5.50006 29 4.49989C28.0001 3.49973 27 3.99998 15.5 4.00001C4 4.00004 3 3.49994 2 4.49989C1 5.49985 1.5 4.99978 1.5 14.9999C1.5 25 1 25.4998 2 26.4999C3 27.5 3.5 27.5 17 27.5" stroke="#1D3557" stroke-linecap="round" stroke-linejoin="round"/>
    <path d="M1 9.5H29.5" stroke="#1D3557"/>
    <rect x="5.5" y="12.5" width="3" height="2" rx="1" stroke="#1D3557"/>
    <rect x="5.5" y="6.5" width="6" height="3" rx="1.5" transform="rotate(-90 5.5 6.5)" stroke="#1D3557"/>
    <rect x="21.5" y="6.5" width="6" height="3" rx="1.5" transform="rotate(-90 21.5 6.5)" stroke="#1D3557"/>
    <rect x="13.5" y="6.5" width="6" height="3" rx="1.5" transform="rotate(-90 13.5 6.5)" stroke="#1D3557"/>
    <rect x="11.5" y="12.5" width="3" height="2" rx="1" stroke="#1D3557"/>
    <rect x="17.5" y="12.5" width="3" height="2" rx="1" stroke="#1D3557"/>
    <rect x="5.5" y="17.5" width="3" height="2" rx="1" stroke="#1D3557"/>
    <rect x="11.5" y="17.5" width="3" height="2" rx="1" stroke="#1D3557"/>
    <rect x="5.5" y="22.5" width="3" height="2" rx="1" stroke="#1D3557"/>
    <rect x="11.5" y="22.5" width="3" height="2" rx="1" stroke="#1D3557"/>
    <rect x="23.5" y="12.5" width="3" height="2" rx="1" stroke="#1D3557"/>
    <circle cx="23.5" cy="23.5" r="6" stroke="#1D3557"/>
    <path d="M20.5 23.5L22.5 25.5L27 21.5" stroke="#1D3557" stroke-linecap="round" stroke-linejoin="round"/>
</svg>
