<svg width="68" height="67" viewBox="0 0 68 67" fill="none" xmlns="http://www.w3.org/2000/svg">
    <path d="M10.4708 49.3192C10.4706 60.3179 8.97095 64.8192 19.4708 64.8192C27.9709 64.8192 26.4706 63.5582 26.4708 54.3192C26.4709 46.3179 26.9706 43.3206 34.9708 43.3192C42.9709 43.3179 42.4709 45.8179 42.4708 54.3192C42.4706 63.5581 40.9709 64.8192 49.4708 64.8192C60.4709 64.8192 58.4708 59.3179 58.4708 49.3192C58.4708 37.3192 58.4708 37.3192 61.4708 37.3192C70.9709 34.8179 63.4704 29.3179 50.4709 16.318C30.9712 -3.18222 37.4709 -2.68215 17.4709 17.3178C5.47095 29.3179 -2.02906 34.8179 6.97078 37.3192C12.9709 37.3179 10.471 39.0394 10.4708 49.3192Z" fill="none" stroke="#1D3557" stroke-width="4"/>
</svg>
